<?xml version="1.0" encoding="UTF-8"?>
<svg width="256px" height="256px" viewBox="0 0 256 256" version="1.1" xmlns="http://www.w3.org/2000/svg">
    <title>AI/ML</title>
    <g stroke="none" stroke-width="1" fill="none" fill-rule="evenodd">
        <circle fill="#6E56CF" cx="128" cy="128" r="128"></circle>
        <g transform="translate(48.000000, 48.000000)" fill="#FFFFFF" fill-rule="nonzero">
            <path d="M80,0 C35.8172,0 0,35.8172 0,80 C0,124.1828 35.8172,160 80,160 C124.1828,160 160,124.1828 160,80 C160,35.8172 124.1828,0 80,0 Z M80,16 C115.3462,16 144,44.6538 144,80 C144,115.3462 115.3462,144 80,144 C44.6538,144 16,115.3462 16,80 C16,44.6538 44.6538,16 80,16 Z"></path>
            <path d="M80,32 C53.4903,32 32,53.4903 32,80 C32,106.5097 53.4903,128 80,128 C106.5097,128 128,106.5097 128,80 C128,53.4903 106.5097,32 80,32 Z M80,48 C97.6731,48 112,62.3269 112,80 C112,97.6731 97.6731,112 80,112 C62.3269,112 48,97.6731 48,80 C48,62.3269 62.3269,48 80,48 Z"></path>
            <circle cx="80" cy="80" r="16"></circle>
            <path d="M32,32 L48,48 M112,112 L128,128 M32,128 L48,112 M112,48 L128,32"></path>
        </g>
    </g>
</svg>
