<?xml version="1.0" encoding="UTF-8" standalone="no"?>
<svg
   xmlns:dc="http://purl.org/dc/elements/1.1/"
   xmlns:cc="http://creativecommons.org/ns#"
   xmlns:rdf="http://www.w3.org/1999/02/22-rdf-syntax-ns#"
   xmlns:svg="http://www.w3.org/2000/svg"
   xmlns="http://www.w3.org/2000/svg"
   xmlns:sodipodi="http://sodipodi.sourceforge.net/DTD/sodipodi-0.dtd"
   xmlns:inkscape="http://www.inkscape.org/namespaces/inkscape"
   width="256"
   height="256"
   viewBox="0 0 67.733332 67.733335"
   version="1.1"
   id="svg8"
   inkscape:version="1.0.2 (e86c870879, 2021-01-15)"
   sodipodi:docname="fastapi.svg">
  <defs
     id="defs2" />
  <g
     inkscape:label="Layer 1"
     inkscape:groupmode="layer"
     id="layer1"
     transform="translate(0,-229.26665)">
    <path
       style="fill:#009688;fill-opacity:1;stroke-width:0.264583"
       d="m 33.866667,229.26665 c -18.702384,0 -33.866667,15.16429 -33.866667,33.86667 0,18.70238 15.164283,33.86666 33.866667,33.86666 18.702384,0 33.866666,-15.16428 33.866666,-33.86666 0,-18.70238 -15.164282,-33.86667 -33.866666,-33.86667 z m -4.233334,16.93333 h 8.466667 c 7.054167,0 12.7,5.64584 12.7,12.7 0,7.05417 -5.645833,12.7 -12.7,12.7 h -8.466667 c -7.054166,0 -12.7,-5.64583 -12.7,-12.7 0,-7.05416 5.645834,-12.7 12.7,-12.7 z m 0,4.23334 c -4.705833,0 -8.466666,3.76083 -8.466666,8.46666 0,4.70584 3.760833,8.46667 8.466666,8.46667 h 8.466667 c 4.705833,0 8.466667,-3.76083 8.466667,-8.46667 0,-4.70583 -3.760834,-8.46666 -8.466667,-8.46666 z m 0,4.23333 h 8.466667 c 2.35,0 4.233333,1.88334 4.233333,4.23333 0,2.35 -1.883333,4.23334 -4.233333,4.23334 h -8.466667 c -2.35,0 -4.233333,-1.88334 -4.233333,-4.23334 0,-2.35 1.883333,-4.23333 4.233333,-4.23333 z"
       id="path3713" />
  </g>
</svg>
