<?xml version="1.0" encoding="UTF-8"?>
<svg width="256px" height="256px" viewBox="0 0 256 256" version="1.1" xmlns="http://www.w3.org/2000/svg">
    <title>OpenAI</title>
    <g stroke="none" stroke-width="1" fill="none" fill-rule="evenodd">
        <path d="M128,0 C198.692,0 256,57.308 256,128 C256,198.692 198.692,256 128,256 C57.308,256 0,198.692 0,128 C0,57.308 57.308,0 128,0 Z M181.402,71.5 C172.736,66.077 161.843,66.077 153.177,71.5 L95.177,105.5 C86.51,110.923 81.177,120.423 81.177,130.5 L81.177,198.5 C81.177,208.577 86.51,218.077 95.177,223.5 L153.177,257.5 C161.843,262.923 172.736,262.923 181.402,257.5 L239.402,223.5 C248.069,218.077 253.402,208.577 253.402,198.5 L253.402,130.5 C253.402,120.423 248.069,110.923 239.402,105.5 L181.402,71.5 Z" fill="#6E56CF" fill-rule="nonzero"></path>
        <path d="M167.29,78.3507 C162.957,75.8507 157.623,75.8507 153.29,78.3507 L118.29,98.3507 C113.957,100.851 111.29,105.517 111.29,110.517 L111.29,150.517 C111.29,155.517 113.957,160.184 118.29,162.684 L153.29,182.684 C157.623,185.184 162.957,185.184 167.29,182.684 L202.29,162.684 C206.623,160.184 209.29,155.517 209.29,150.517 L209.29,110.517 C209.29,105.517 206.623,100.851 202.29,98.3507 L167.29,78.3507 Z" fill="#FFFFFF" fill-rule="nonzero"></path>
    </g>
</svg>
